<svg width="24" height="24" viewBox="0 0 24 24" fill="none" xmlns="http://www.w3.org/2000/svg">
<path d="M21.9685 18.332C21.9685 18.692 21.8885 19.062 21.7185 19.422C21.5485 19.782 21.3285 20.122 21.0385 20.442C20.5485 20.982 20.0085 21.372 19.3985 21.622C18.7985 21.872 18.1485 22.002 17.4485 22.002C16.4285 22.002 15.3385 21.762 14.1885 21.272C13.0385 20.782 11.8885 20.122 10.7485 19.292C9.59854 18.452 8.50853 17.522 7.46853 16.492C6.43853 15.452 5.50853 14.362 4.67853 13.222C3.85853 12.082 3.19854 10.942 2.71854 9.81195C2.23854 8.67195 1.99854 7.58195 1.99854 6.54195C1.99854 5.86195 2.11854 5.21195 2.35854 4.61195C2.59854 4.00195 2.97854 3.44195 3.50854 2.94195C4.14854 2.31195 4.84854 2.00195 5.58854 2.00195C5.86854 2.00195 6.14854 2.06195 6.39854 2.18195C6.65854 2.30195 6.88854 2.48195 7.06854 2.74195L9.38854 6.01195C9.56854 6.26195 9.69854 6.49195 9.78854 6.71195C9.87854 6.92195 9.92854 7.13195 9.92854 7.32195C9.92854 7.56195 9.85854 7.80195 9.71854 8.03195C9.58854 8.26195 9.39853 8.50195 9.15854 8.74195L8.39853 9.53195C8.28853 9.64195 8.23853 9.77195 8.23853 9.93195C8.23853 10.012 8.24854 10.082 8.26854 10.162C8.29854 10.242 8.32854 10.302 8.34854 10.362C8.52854 10.692 8.83853 11.122 9.27853 11.642C9.72853 12.162 10.2085 12.692 10.7285 13.222C11.2685 13.752 11.7885 14.242 12.3185 14.692C12.8385 15.132 13.2685 15.432 13.6085 15.612C13.6585 15.632 13.7185 15.662 13.7885 15.692C13.8685 15.722 13.9485 15.732 14.0385 15.732C14.2085 15.732 14.3385 15.672 14.4485 15.562L15.2085 14.812C15.4585 14.562 15.6985 14.372 15.9285 14.252C16.1585 14.112 16.3885 14.042 16.6385 14.042C16.8285 14.042 17.0285 14.082 17.2485 14.172C17.4685 14.262 17.6985 14.392 17.9485 14.562L21.2585 16.912C21.5185 17.092 21.6985 17.302 21.8085 17.552C21.9085 17.802 21.9685 18.052 21.9685 18.332Z" stroke="#F2F2F2" stroke-miterlimit="10"/>
</svg>
